<svg id="Logo" xmlns="http://www.w3.org/2000/svg" xmlns:xlink="http://www.w3.org/1999/xlink" viewBox="0 0 2583 1902.82"><defs><style>.cls-1{fill:url(#Gradiente_sem_nome_330);}.cls-2{fill:url(#Gradiente_sem_nome_39);}.cls-3{fill:url(#Gradiente_sem_nome_39-2);}.cls-4{fill:url(#Gradiente_sem_nome_4189);}.cls-5{fill:url(#Gradiente_sem_nome_223);}.cls-6{fill:url(#Gradiente_sem_nome_223-2);}.cls-7{fill:url(#Gradiente_sem_nome_5842);}.cls-8{fill:url(#Gradiente_sem_nome_127);}.cls-9{fill:url(#Gradiente_sem_nome_6219);}.cls-10{fill:url(#Gradiente_sem_nome_6219-2);}.cls-11{fill:url(#Gradiente_sem_nome_127-2);}.cls-12{fill:url(#Gradiente_sem_nome_4796);}.cls-13{fill:url(#Gradiente_sem_nome_4796-2);}.cls-14{fill:url(#Gradiente_sem_nome_4796-3);}.cls-15{fill:url(#Gradiente_sem_nome_4796-4);}.cls-16{fill:url(#Gradiente_sem_nome_4796-5);}.cls-17{fill:url(#Gradiente_sem_nome_4778);}.cls-18{fill:url(#Gradiente_sem_nome_4778-2);}.cls-19{fill:url(#Gradiente_sem_nome_4778-3);}.cls-20{fill:url(#Gradiente_sem_nome_4778-4);}.cls-21{fill:url(#Gradiente_sem_nome_4778-5);}.cls-22{fill:url(#Gradiente_sem_nome_42);}.cls-23{fill:url(#Gradiente_sem_nome_42-2);}.cls-24{fill:url(#Gradiente_sem_nome_42-3);}.cls-25{fill:url(#Gradiente_sem_nome_42-4);}.cls-26{fill:url(#Gradiente_sem_nome_42-5);}.cls-27{fill:url(#Gradiente_sem_nome_42-6);}.cls-28{fill:url(#Gradiente_sem_nome_18);}.cls-29{fill:url(#Gradiente_sem_nome_18-2);}.cls-30{fill:url(#Gradiente_sem_nome_18-3);}.cls-31{fill:url(#Gradiente_sem_nome_18-4);}.cls-32{fill:url(#Gradiente_sem_nome_18-5);}.cls-33{fill:url(#Gradiente_sem_nome_18-6);}.cls-34{fill:url(#Gradiente_sem_nome_1052);}.cls-35{fill:url(#Gradiente_sem_nome_140);}.cls-36{fill:url(#Gradiente_sem_nome_132);}.cls-37{fill:url(#Gradiente_sem_nome_131);}.cls-38{fill:url(#Gradiente_sem_nome_1052-2);}.cls-39{fill:url(#Gradiente_sem_nome_1052-3);}.cls-40{fill:url(#Gradiente_sem_nome_1052-4);}.cls-41{fill:url(#Gradiente_sem_nome_1052-5);}.cls-42{fill:url(#Gradiente_sem_nome_5734);}.cls-43{fill:url(#Gradiente_sem_nome_5753);}.cls-44{fill:url(#Gradiente_sem_nome_5745);}.cls-45{fill:url(#Gradiente_sem_nome_5741);}.cls-46{fill:url(#Gradiente_sem_nome_814);}.cls-47{fill:url(#Gradiente_sem_nome_814-2);}.cls-48{fill:url(#Gradiente_sem_nome_814-3);}.cls-49{fill:url(#Gradiente_sem_nome_814-4);}</style><linearGradient id="Gradiente_sem_nome_330" x1="1936.5" y1="2021" x2="1936.5" y2="118.18" gradientUnits="userSpaceOnUse"><stop offset="0" stop-color="#2a0900"/><stop offset="1" stop-color="#ce7500"/></linearGradient><linearGradient id="Gradiente_sem_nome_39" x1="1034.38" y1="1656" x2="1034.38" y2="1577" gradientUnits="userSpaceOnUse"><stop offset="0" stop-color="#ffc900"/><stop offset="1" stop-color="#ff931e"/></linearGradient><linearGradient id="Gradiente_sem_nome_39-2" x1="2817.37" x2="2817.37" xlink:href="#Gradiente_sem_nome_39"/><linearGradient id="Gradiente_sem_nome_4189" x1="1936.5" y1="2021" x2="1936.5" y2="118.18" gradientUnits="userSpaceOnUse"><stop offset="0" stop-color="#ffb900"/><stop offset="1" stop-color="#ffcd00"/></linearGradient><linearGradient id="Gradiente_sem_nome_223" x1="2159.21" y1="1629.34" x2="2159.21" y2="1497.24" gradientUnits="userSpaceOnUse"><stop offset="0" stop-color="#6d1212"/><stop offset="1" stop-color="#aa1517"/></linearGradient><linearGradient id="Gradiente_sem_nome_223-2" x1="1680.79" y1="1629.34" x2="1680.79" y2="1497.24" xlink:href="#Gradiente_sem_nome_223"/><linearGradient id="Gradiente_sem_nome_5842" x1="1920" y1="1901" x2="1920" y2="1497.24" gradientUnits="userSpaceOnUse"><stop offset="0" stop-color="#a11212"/><stop offset="1" stop-color="#ff3617"/></linearGradient><linearGradient id="Gradiente_sem_nome_127" x1="1310" y1="1494.53" x2="1310" y2="1604.82" gradientUnits="userSpaceOnUse"><stop offset="0" stop-color="#e6e6e6"/><stop offset="1" stop-color="#d6d6d6"/></linearGradient><linearGradient id="Gradiente_sem_nome_6219" x1="1310" y1="1714.82" x2="1310" y2="1595.82" gradientUnits="userSpaceOnUse"><stop offset="0" stop-color="#7a7a7a"/><stop offset="1" stop-color="#fff"/></linearGradient><linearGradient id="Gradiente_sem_nome_6219-2" x1="1240" y1="1494.53" x2="1240" y2="1604.82" xlink:href="#Gradiente_sem_nome_6219"/><linearGradient id="Gradiente_sem_nome_127-2" x1="1240" y1="1595.82" x2="1240" y2="1714.82" xlink:href="#Gradiente_sem_nome_127"/><linearGradient id="Gradiente_sem_nome_4796" x1="1920.48" y1="392.98" x2="1920.48" y2="249.03" gradientUnits="userSpaceOnUse"><stop offset="0" stop-color="#ff8300"/><stop offset="1" stop-color="#ffc200"/></linearGradient><linearGradient id="Gradiente_sem_nome_4796-2" x1="1673.17" y1="403.62" x2="1673.17" y2="292.24" xlink:href="#Gradiente_sem_nome_4796"/><linearGradient id="Gradiente_sem_nome_4796-3" x1="2167.32" y1="407.54" x2="2167.32" y2="292.26" xlink:href="#Gradiente_sem_nome_4796"/><linearGradient id="Gradiente_sem_nome_4796-4" x1="2363.66" y1="445" x2="2363.66" y2="355.97" xlink:href="#Gradiente_sem_nome_4796"/><linearGradient id="Gradiente_sem_nome_4796-5" x1="1476.39" y1="440.89" x2="1476.39" y2="355.97" xlink:href="#Gradiente_sem_nome_4796"/><linearGradient id="Gradiente_sem_nome_4778" x1="1920.48" y1="361.22" x2="1920.48" y2="249.03" gradientUnits="userSpaceOnUse"><stop offset="0" stop-color="#ffbd15"/><stop offset="1" stop-color="#ffea3f"/></linearGradient><linearGradient id="Gradiente_sem_nome_4778-2" x1="1669.98" y1="380.22" x2="1669.98" y2="292.24" xlink:href="#Gradiente_sem_nome_4778"/><linearGradient id="Gradiente_sem_nome_4778-3" x1="2170.98" y1="380.22" x2="2170.98" y2="292.26" xlink:href="#Gradiente_sem_nome_4778"/><linearGradient id="Gradiente_sem_nome_4778-4" x1="2369.5" y1="418" x2="2369.5" y2="355.97" xlink:href="#Gradiente_sem_nome_4778"/><linearGradient id="Gradiente_sem_nome_4778-5" x1="1470.5" y1="418" x2="1470.5" y2="355.97" xlink:href="#Gradiente_sem_nome_4778"/><linearGradient id="Gradiente_sem_nome_42" x1="1096.27" y1="894.01" x2="1096.27" y2="478.03" gradientUnits="userSpaceOnUse"><stop offset="0" stop-color="#ac4c00"/><stop offset="1" stop-color="#c48300"/></linearGradient><linearGradient id="Gradiente_sem_nome_42-2" x1="1362.5" y1="876.63" x2="1362.5" y2="442.36" xlink:href="#Gradiente_sem_nome_42"/><linearGradient id="Gradiente_sem_nome_42-3" x1="1723.62" y1="853.3" x2="1723.62" y2="399" xlink:href="#Gradiente_sem_nome_42"/><linearGradient id="Gradiente_sem_nome_42-4" x1="2114.32" y1="849" x2="2114.32" y2="399.49" xlink:href="#Gradiente_sem_nome_42"/><linearGradient id="Gradiente_sem_nome_42-5" x1="2422.22" y1="876" x2="2422.22" y2="422" xlink:href="#Gradiente_sem_nome_42"/><linearGradient id="Gradiente_sem_nome_42-6" x1="2731.94" y1="893.24" x2="2731.94" y2="475.51" xlink:href="#Gradiente_sem_nome_42"/><linearGradient id="Gradiente_sem_nome_18" x1="1080.27" y1="867.18" x2="1080.27" y2="477.69" gradientUnits="userSpaceOnUse"><stop offset="0" stop-color="#ff931e"/><stop offset="1" stop-color="#ff0"/></linearGradient><linearGradient id="Gradiente_sem_nome_18-2" x1="1348.85" y1="843" x2="1348.85" y2="442.36" xlink:href="#Gradiente_sem_nome_18"/><linearGradient id="Gradiente_sem_nome_18-3" x1="1722.7" y1="800" x2="1722.7" y2="399" xlink:href="#Gradiente_sem_nome_18"/><linearGradient id="Gradiente_sem_nome_18-4" x1="2114.82" y1="793" x2="2114.82" y2="399.5" xlink:href="#Gradiente_sem_nome_18"/><linearGradient id="Gradiente_sem_nome_18-5" x1="2434" y1="831" x2="2434" y2="422" xlink:href="#Gradiente_sem_nome_18"/><linearGradient id="Gradiente_sem_nome_18-6" x1="2747.86" y1="864.27" x2="2747.86" y2="475.68" xlink:href="#Gradiente_sem_nome_18"/><linearGradient id="Gradiente_sem_nome_1052" x1="1005.35" y1="1477.94" x2="1005.35" y2="887" gradientUnits="userSpaceOnUse"><stop offset="0" stop-color="#003d24"/><stop offset="1" stop-color="#189000"/></linearGradient><linearGradient id="Gradiente_sem_nome_140" x1="1283" y1="964.12" x2="1359.09" y2="964.12" gradientUnits="userSpaceOnUse"><stop offset="0.2" stop-color="#f4b504"/><stop offset="0.36" stop-color="#f1b104"/><stop offset="0.52" stop-color="#e7a604"/><stop offset="0.68" stop-color="#d79204"/><stop offset="0.83" stop-color="#c07705"/><stop offset="0.98" stop-color="#a25405"/><stop offset="1" stop-color="#9e4f05"/></linearGradient><linearGradient id="Gradiente_sem_nome_132" x1="1185.95" y1="1415.95" x2="1319.47" y2="1432.34" gradientUnits="userSpaceOnUse"><stop offset="0.6" stop-color="#45a515"/><stop offset="0.67" stop-color="#3e9b16"/><stop offset="0.79" stop-color="#2b7f1a"/><stop offset="0.94" stop-color="#0d5320"/><stop offset="1" stop-color="#014023"/></linearGradient><linearGradient id="Gradiente_sem_nome_131" x1="1221.1" y1="1202.98" x2="1343.06" y2="1217.95" xlink:href="#Gradiente_sem_nome_132"/><linearGradient id="Gradiente_sem_nome_1052-2" x1="1551.44" y1="1455.93" x2="1551.44" y2="854" xlink:href="#Gradiente_sem_nome_1052"/><linearGradient id="Gradiente_sem_nome_1052-3" x1="2011" y1="1449.96" x2="2011" y2="839" xlink:href="#Gradiente_sem_nome_1052"/><linearGradient id="Gradiente_sem_nome_1052-4" x1="2434.14" y1="1463.86" x2="2434.14" y2="849" xlink:href="#Gradiente_sem_nome_1052"/><linearGradient id="Gradiente_sem_nome_1052-5" x1="2809.54" y1="1476.92" x2="2809.54" y2="886" xlink:href="#Gradiente_sem_nome_1052"/><linearGradient id="Gradiente_sem_nome_5734" x1="990.5" y1="1463" x2="990.5" y2="887" gradientUnits="userSpaceOnUse"><stop offset="0" stop-color="#008224"/><stop offset="1" stop-color="#a9d800"/></linearGradient><linearGradient id="Gradiente_sem_nome_5753" x1="1300.28" y1="1030.47" x2="1300.28" y2="887.53" gradientUnits="userSpaceOnUse"><stop offset="0" stop-color="#e79a08"/><stop offset="1" stop-color="#fc0"/></linearGradient><linearGradient id="Gradiente_sem_nome_5745" x1="1235.27" y1="1455.64" x2="1235.27" y2="1391.14" gradientUnits="userSpaceOnUse"><stop offset="0" stop-color="#008224"/><stop offset="1" stop-color="#3fa217"/></linearGradient><linearGradient id="Gradiente_sem_nome_5741" x1="1260.29" y1="1392.75" x2="1260.29" y2="1027.9" gradientUnits="userSpaceOnUse"><stop offset="0" stop-color="#329b19"/><stop offset="1" stop-color="#47a615"/></linearGradient><linearGradient id="Gradiente_sem_nome_814" x1="1544.5" y1="1434" x2="1544.5" y2="854" xlink:href="#Gradiente_sem_nome_5734"/><linearGradient id="Gradiente_sem_nome_814-2" x1="2011" y1="1424" x2="2011" y2="839" xlink:href="#Gradiente_sem_nome_5734"/><linearGradient id="Gradiente_sem_nome_814-3" x1="2446" y1="1443" x2="2446" y2="849" xlink:href="#Gradiente_sem_nome_5734"/><linearGradient id="Gradiente_sem_nome_814-4" x1="2826" y1="1461" x2="2826" y2="886" xlink:href="#Gradiente_sem_nome_5734"/></defs><g id="FUNDO"><path d="M2972.5,1078.5c-30.61-117.84-111-174-111-174s78-30,55-145l-38-146c-11-32-23.91-55.43-46-82-40.09-48.24-102.16-75.67-155.72-75.67-31.94,0-60.86,9.75-80.28,30.67l-8-42-12.5.5-6-30s-14-48-30-67c-10.07-12-27.65-20.95-45-26L2041,186s-64-17.82-121-17.82S1799,186,1799,186L1345,322c-17.35,5.05-34.93,14-45,26-16,19-30,67-30,67l-6,30-33,3-8,45c-16.81-24.42-44.83-35.86-76.51-35.86-47.46,0-103.11,25.69-141.49,71.86-22.09,26.57-35,50-46,82l-26,96c-41,135,4,173,4,173l-51,1L719,1517l171-4,26-116,28,113,457-21,48,62s68,90,188,186,222,151,222,151,26,13,61,13,61-13,61-13,102-55,222-151,188-186,188-186l48-62,437.5,20.5-20-87,43,88,217,7-150-243S3012.5,1232.5,2972.5,1078.5Z" transform="translate(-645 -118.18)"/></g><path id="UBORDA" class="cls-1" d="M1926,225.18c57,0,121,17.82,121,17.82l421,124c17.35,5.05,34.93,14,45,26,16,19,26,83,26,83l15,2,12.5-.5L2572,527c19.42-20.92,76.06-43,108-43,53.56,0,88.91,13.76,129,62,22.09,26.57,31,52,42,84l32,138c23,115-21.5,136.5-21.5,136.5L2833,929s82.17,71.81,103,152c40,154-7,212-7,212l137,229-166.5-11.5-43-88L2816,1440l13,67-390-18-48,62s-68,90-188,186-222,151-222,151-26,13-61,13-61-13-61-13-102-55-222-151-188-186-188-186l-9.47-12.23L1421,1514.84,1401,1489l-420,19-25-95-40-16-26,116-125,3L924,918l47-7s-53-44-12-179l46-124c11-32,11.91-40.43,34-67,38.38-46.17,67.55-50,115-50,31.68,0,77.19,17.58,94,42l9-47,33-3,7-21s13-55,29-74c10.07-12,25.65-15.95,43-21l436-124s64-17.82,121-17.82m-6-107c-63.11,0-131.53,18.85-134.41,19.65l-.47.13-.47.14-453.85,136c-16.91,4.94-48.13,16.9-69,41.73-10.38,12.34-20,30.32-29.45,55-4.7,12.28-8.13,23.1-9.56,27.78l-34.29,3.12-1.82,10.27a164.76,164.76,0,0,0-40.14-4.79c-64.91,0-133.85,34.45-179.94,89.9-25.73,31-41.62,59.27-54.83,97.71l-.55,1.57-.43,1.61-25.81,95.29c-16,52.82-22,99.15-18,138.14l-19.72.39L645,1602l715-25,19.32,24.43c5.19,6.82,105.14,137.57,226.45,234.61,92.18,73.75,176.74,131.13,212.66,154.83a179.06,179.06,0,0,0,69.79,27.52A197.52,197.52,0,0,0,1920,2021l2.83,0a179.9,179.9,0,0,0,104.13-35.6c38.52-28.48,119.44-89.07,207.27-159.34,121.31-97,211.26-217.79,216.45-224.61L2470,1577l758,25-203.35-328.49a177.06,177.06,0,0,0,8.7-28.59c10.32-47.23,6.13-107.45-12.46-179a391.42,391.42,0,0,0-34.69-88.17A384.69,384.69,0,0,0,2944,915.34q-3.79-4.56-7.49-8.72c.32-.41.64-.82.95-1.24,21.4-28.15,43.63-78,28.1-155.69l-.28-1.4-.36-1.38-38-146-.48-1.86-.63-1.8c-13.21-38.44-29.09-66.75-54.83-97.71-23.86-28.7-54.93-52.62-89.87-69.16-33.93-16.06-70-24.55-104.3-24.55a187,187,0,0,0-43.79,5l-3.44-18-13.91.55c-1.8-5.58-4.54-13.71-7.94-22.61-9.43-24.65-19.07-42.63-29.45-55-20.92-24.83-52.14-36.79-69.05-41.73l-453.85-136-.47-.14-.47-.13c-2.88-.8-71.3-19.65-134.41-19.65Z" transform="translate(-645 -118.18)"/><g id="BORDA"><path id="L" class="cls-2" d="M1360,1577l-715,25,202,54h576.76c-26.19-30.68-42.43-51.93-44.44-54.57Z" transform="translate(-645 -118.18)"/><path id="R" class="cls-3" d="M2470,1577l-19.32,24.43c-2.09,2.74-17.9,23.92-43.93,54.57h619.49L3228,1602Z" transform="translate(-645 -118.18)"/><g id="BORDA-2" data-name="BORDA"><path id="BORDA-3" data-name="BORDA" class="cls-4" d="M1920,168.18c57,0,121,17.82,121,17.82l454,136c17.35,5.05,34.93,14,45,26,16,19,30,67,30,67l6,30,12.5-.5,8,42c19.42-20.92,48.34-30.67,80.28-30.67,53.56,0,115.63,27.43,155.72,75.67,22.09,26.57,35,50,46,82l38,146c23,115-55,145-55,145s80.39,56.16,111,174c40,154-6,196-6,196l150,243-217-7-43-88,20,87L2439,1489l-48,62s-68,90-188,186-222,151-222,151-26,13-61,13-61-13-61-13-102-55-222-151-188-186-188-186l-48-62-457,21-28-113-26,116-171,4L886,881l51-1s-45-38-4-173l26-96c11-32,23.91-55.43,46-82,38.38-46.17,94-71.86,141.49-71.86,31.68,0,59.7,11.44,76.51,35.86l8-45,33-3,6-30s14-48,30-67c10.07-12,27.65-20.95,45-26l454-136s64-17.82,121-17.82m0-50c-63.11,0-131.53,18.85-134.41,19.65l-.47.13-.47.14-453.85,136c-16.91,4.94-48.13,16.9-69,41.73-10.38,12.34-20,30.32-29.45,55-4.7,12.28-8.13,23.1-9.56,27.78l-34.29,3.12-1.82,10.27a164.76,164.76,0,0,0-40.14-4.79c-64.91,0-133.85,34.45-179.94,89.9-25.73,31-41.62,59.27-54.83,97.71l-.55,1.57-.43,1.61-25.81,95.29c-16,52.82-22,99.15-18,138.14l-19.72.39L645,1602l715-25,19.32,24.43c5.19,6.82,105.14,137.57,226.45,234.61,92.18,73.75,176.74,131.13,212.66,154.83a179.06,179.06,0,0,0,69.79,27.52A197.52,197.52,0,0,0,1920,2021l2.83,0a179.9,179.9,0,0,0,104.13-35.6c38.52-28.48,119.44-89.07,207.27-159.34,121.31-97,211.26-217.79,216.45-224.61L2470,1577l758,25-203.35-328.49a177.06,177.06,0,0,0,8.7-28.59c10.32-47.23,6.13-107.45-12.46-179a391.42,391.42,0,0,0-34.69-88.17A384.69,384.69,0,0,0,2944,915.34q-3.79-4.56-7.49-8.72c.32-.41.64-.82.95-1.24,21.4-28.15,43.63-78,28.1-155.69l-.28-1.4-.36-1.38-38-146-.48-1.86-.63-1.8c-13.21-38.44-29.09-66.75-54.83-97.71-23.86-28.7-54.93-52.62-89.87-69.16-33.93-16.06-70-24.55-104.3-24.55a187,187,0,0,0-43.79,5l-3.44-18-13.91.55c-1.8-5.58-4.54-13.71-7.94-22.61-9.43-24.65-19.07-42.63-29.45-55-20.92-24.83-52.14-36.79-69.05-41.73l-453.85-136-.47-.14-.47-.13c-2.88-.8-71.3-19.65-134.41-19.65Z" transform="translate(-645 -118.18)"/></g></g><path class="cls-5" d="M2115,1629c138.44,6.17,261.28-73.3,283.42-88.49-48.86,22-167.34,63.67-283.42,58.49-157-7-195-101.76-195-101.76S1958,1622,2115,1629Z" transform="translate(-645 -118.18)"/><path class="cls-6" d="M1725,1629c157-7,195-131.76,195-131.76S1882,1592,1725,1599c-116.08,5.18-234.56-36.5-283.42-58.49C1463.72,1555.7,1586.56,1635.17,1725,1629Z" transform="translate(-645 -118.18)"/><path class="cls-7" d="M2115,1629c-157-7-195-131.76-195-131.76S1882,1622,1725,1629c-142,6.33-267.55-77.42-284.93-89.53L1449,1551s68,90,188,186,222,151,222,151,26,13,61,13,61-13,61-13,102-55,222-151,188-186,188-186l8.93-11.53C2382.55,1551.58,2257,1635.33,2115,1629Z" transform="translate(-645 -118.18)"/><g id="Gem"><polyline class="cls-8" points="1275 1596 1275 1494.53 1345 1604.82"/><polyline class="cls-9" points="1275 1595.82 1275 1714.82 1345 1604.82"/><polyline class="cls-10" points="1275 1596 1275 1494.53 1205 1604.82"/><polyline class="cls-11" points="1275 1595.82 1275 1714.82 1205 1604.82"/></g><g id="UStars"><path class="cls-12" d="M1962,346l31.17-22.67a5,5,0,0,0,2-3.58l2.79-29.93-56.79-4.93-16.77-33.12a5,5,0,0,0-8.92,0l-16.76,33.12L1843,289.82l1.88,28.9a5,5,0,0,0,2,3.66L1878,346l-5.48,14.22.37,26a5,5,0,0,0,7.12,4.46L1920,372l40.89,20.4a5,5,0,0,0,7.23-4.41l.35-26.81Z" transform="translate(-645 -118.18)"/><path class="cls-13" d="M1733.24,341.7,1727,314.82l-42,.18-8.88-19.81a5,5,0,0,0-9-.32l-12.4,23L1613,323.82l7.55,24.62a5,5,0,0,0,1.78,2.54l14.7,11-6.48,18.22,6.57,20a5,5,0,0,0,7.23,2.78L1674,386l26.18,13.82a5,5,0,0,0,7.2-5.6L1701,368l30.22-21.06A5,5,0,0,0,1733.24,341.7Z" transform="translate(-645 -118.18)"/><path class="cls-14" d="M2139,372l-30.44-24a5,5,0,0,1-1.75-5.16l7.16-28,42,.18,8.87-19.78a5,5,0,0,1,9-.33l12.41,23,41.79,5.93-9.49,28.63a5,5,0,0,1-1.84,2.5L2204,364l6.45,16.22-7.56,23.83a5,5,0,0,1-7.29,2.8L2165,389l-24.63,10.86a5,5,0,0,1-6.86-5.79l5-19.85Z" transform="translate(-645 -118.18)"/><path class="cls-15" d="M2363.47,358.65,2357,371l-23-1-11.16,22.32a5,5,0,0,0,1.41,6.19L2343,413l-2,23,21-9,25,18,11-27-5-14,12-24-25-6-7.63-15.26A5,5,0,0,0,2363.47,358.65Z" transform="translate(-645 -118.18)"/><path class="cls-16" d="M1476.53,358.65,1483,371l23-1,11.25,22.51a5,5,0,0,1-1.21,6L1498,414l1.28,16a5,5,0,0,1-7.31,4.83l-13-6.8-20.29,12.18a5,5,0,0,1-7.08-2.13L1442,418l5-13-12-25,25-6,7.63-15.26A5,5,0,0,1,1476.53,358.65Z" transform="translate(-645 -118.18)"/></g><g id="Stars"><path class="cls-17" d="M1955.48,319.59,1998,289.82l-56.79-4.93-16.77-33.12a5,5,0,0,0-8.92,0l-16.76,33.12L1843,289.82l41.51,29.77-12,40.63L1920,336l48.47,25.18Z" transform="translate(-645 -118.18)"/><path class="cls-18" d="M1694.48,340.59,1727,314.82l-42,.18-8.88-19.81a5,5,0,0,0-9-.32l-12.4,23L1613,323.82l29.51,20.77-12,35.63L1668,359l34.47,15.18Z" transform="translate(-645 -118.18)"/><path class="cls-19" d="M2146.48,340.59,2114,314.82l42,.18,8.87-19.78a5,5,0,0,1,9-.33l12.41,23,41.79,5.93-29.52,20.77,12,35.63L2173,359l-34.46,15.18Z" transform="translate(-645 -118.18)"/><path class="cls-20" d="M2363.47,358.65,2357,371l-23-1,22,19-2,23,19-11,25,17-10-25,17-13-25-6-7.63-15.26A5,5,0,0,0,2363.47,358.65Z" transform="translate(-645 -118.18)"/><path class="cls-21" d="M1476.53,358.65,1483,371l23-1-22,19,2,23-19-11-25,17,10-25-17-13,25-6,7.63-15.26A5,5,0,0,1,1476.53,358.65Z" transform="translate(-645 -118.18)"/></g><g id="UCRYPTO"><path class="cls-22" d="M1173,762l24,28s3.77,7.54-4,23c-4.19,8.33-16.6,21.6-25,30-23.56,23.56-56,44-84,49-19.67,3.51-42.4,3.16-64-7-17-8-31.54-22.28-43-33-21.17-19.8-28.81-42-29.42-69.45a165.68,165.68,0,0,1,3.52-37.16c7.85-38.17,15.42-65,24.89-104.62,11.15-46.6,26-95.93,64-126.77,27.58-22.35,42.67-30.47,77-35,35.84-4.73,65.44,8.25,83,29,33,39,45,74,45,74l-71,37-25-24s-54-18-68,57c-.54,2.92-23,100.68-26.54,116a1.45,1.45,0,0,0,1.61,1.76A63.53,63.53,0,0,0,1065,768c15.09-4.44,29.46-19,37.74-28.75a15,15,0,0,1,18.21-3.69Z" transform="translate(-645 -118.18)"/><path class="cls-23" d="M1337,743l-15,2-12.61,114.37a15,15,0,0,1-14.08,13.33l-70.19,3.9a15,15,0,0,1-11.92-4.87L1187,843l70.48-378.27s85-14.63,132.52-20.73c30.57-3.92,70-2,93,19,25.86,23.61,55,82,52,125-3.9,55.93-26,115-86,138,30.5,40.57,60,83,60,83l29,47-116.69,8.4a15,15,0,0,1-13.21-6.14L1381,821Zm62-124,23-45-66,5-9,45Z" transform="translate(-645 -118.18)"/><path class="cls-24" d="M1629,800l12-164L1531.42,445.82a15,15,0,0,1,11.31-22.39l82.06-9.28a15,15,0,0,1,15,8L1702,541l82.71-132.15a15,15,0,0,1,12.37-7L1916,399l1.83,55.83a15,15,0,0,1-2.89,9.35L1776,654l-5.58,178.41a15,15,0,0,1-14,14.49L1661,853.27a15,15,0,0,1-15-9.53Z" transform="translate(-645 -118.18)"/><path class="cls-25" d="M1945.07,414.56a15,15,0,0,1,15.48-15.06c28.38.92,88.91,2.93,124.56,4.46,76.75,3.33,149.6,18.81,189.89,114,33,78-33,214-135,214-19-.82-71-6-71-6l2,67-7.77,42a15,15,0,0,1-14.48,12.26L1947,849ZM2137,584c11,0,28.5.5,7-21-4.1-4.1-12.21-7.92-18-8.2-21.39-1-63-3.8-63-3.8l1,30S2118.58,583.21,2137,584Z" transform="translate(-645 -118.18)"/><path class="cls-26" d="M2542.82,583.81,2498,578l41,253-38,45-94-10-18.31-160.4L2373,569l-96-6-11.42-81.81a15.09,15.09,0,0,1,1.11-8.07L2289,422s180.74,23.51,273.87,38.32C2567.74,491,2579,545,2579,545l-21.82,32.33A15,15,0,0,1,2542.82,583.81Z" transform="translate(-645 -118.18)"/><path class="cls-27" d="M2583,647c-4.37-34.1-10.77-55.53-1-91,19-69,87-88,133-78,82.15,17.86,126.36,80.63,146.14,163.32,10.62,44.48,14.24,57.2,24.86,101.68,6.68,33-22,102-22,102s-20.31,23.84-46,38c-18.48,10.19-36.71,11.84-63,9-74-8-129-65-144-109C2597,737,2590.21,690.77,2583,647Zm128,73c13,37,8.74,78.72,19,82,25,8,56-8,50-35-9.59-44.24-15-82-28-126-6.85-30.91-25.22-42-54-48-22.09-4.57-47.62,6.89-41,37C2665.25,674,2702.75,676,2711,720Z" transform="translate(-645 -118.18)"/></g><g id="CRYPTO"><path class="cls-28" d="M1173,762s-51.29,90.23-116,102c-33,6-50.35,4.63-78-14-22.66-15.26-29.89-37.44-31.25-62.77a163.73,163.73,0,0,1,3.31-41.66c7.86-38.27,15.45-65.08,24.93-104.8,11.15-46.6,26-95.93,64-126.77,27.58-22.35,42.67-30.47,77-35,53-7,85,14,96,65-27,15.22-41.12,22.54-68,38-8.8-34.22-67.3-31.16-92.34,41a83.22,83.22,0,0,0-2.59,9.3c-9.57,43.17-22,85.89-21.07,120.75.31,11,19,20,36,15,15.09-4.44,29.46-19,37.74-28.75a15,15,0,0,1,18.21-3.69Z" transform="translate(-645 -118.18)"/><path class="cls-29" d="M1314,703l-18,2-19,130-90,8,70.48-378.27s85-14.63,132.52-20.73c30.57-3.92,70-2,93,19,25.86,23.61,29.62,54.21,27,87-4.46,55.89-34,107-94,130,30.5,40.57,93,129,93,129l-128,12Zm56-92c51-10,66.74-91.48,5-83-18.06,2.31-50,7-50,7l-14,85S1351.53,613.36,1370,611Z" transform="translate(-645 -118.18)"/><path class="cls-30" d="M1629,800l12-164L1531.42,445.82a15,15,0,0,1,11.31-22.39l82.06-9.28a15,15,0,0,1,15,8L1702,541l82.71-132.15a15,15,0,0,1,12.37-7L1916,399,1753,632l-8,160Z" transform="translate(-645 -118.18)"/><path class="cls-31" d="M1947.08,414.58a15,15,0,0,1,15.49-15.07c28,.93,87,2.93,122.54,4.45,76.75,3.33,156.89,16,189.89,114,32.36,96.09-44.91,159.2-121,158-19-.82-87-7-87-7l4,124-122-2ZM2137,584c53.09,3.29,50.09-69.37,10.41-88.19a44.13,44.13,0,0,0-16.77-4c-21.39-1-70.64-3.8-70.64-3.8l4,93S2118.58,583.21,2137,584Z" transform="translate(-645 -118.18)"/><path class="cls-32" d="M2491,532l48,299-99-11-39-301-101-11s-8.42-55.56-11-86c93.95,8.09,180.74,23.51,273.87,38.32C2567.74,491,2579,545,2579,545Z" transform="translate(-645 -118.18)"/><path class="cls-33" d="M2615,629c-4.37-34.1-19.76-91.33,2-121,22-30,66.63-36.57,98-30,82.28,17.23,126.36,80.63,146.14,163.32,10.62,44.48,14.24,57.2,24.86,101.68,6.68,33,10,82-30,108-29.32,19.06-66.36,14-99,7-81.65-17.39-104-82-116-113C2627,699,2622.21,672.77,2615,629Zm96,91c13,37,40.74,44.72,51,48,25,8,56-8,50-35-9.59-44.24-20-84-33-128-6.85-30.91-25.22-42-54-48-22.09-4.57-47.62,6.89-41,37C2692.25,638,2702.75,676,2711,720Z" transform="translate(-645 -118.18)"/></g><g id="UKILLER"><path class="cls-34" d="M1099.63,899.28,1213,887l25,23.56a15,15,0,0,1,1.46,20.23L1046,1175l100.83,271.69a15,15,0,0,1-13.41,20.2l-113.93,5a15.08,15.08,0,0,1-6.69-1.25L975,1454l-33-128-17,74.84-9-3.84-18,79-89,1.93a14.9,14.9,0,0,1-5.83-1L768,1463,904.32,925.55a15,15,0,0,1,13.54-11.27L997,909l24.58,22.2a15,15,0,0,1,4.61,14.26L1012,1012l77.09-106.6A15,15,0,0,1,1099.63,899.28Z" transform="translate(-645 -118.18)"/><path class="cls-35" d="M1321,1025c8.67,2.64,26.5,13.27,32,16,1.76-18.84,9.84-91.48,4-109-8.37-25.1-23-38-31.18-43.58-3.19-2.18-7.09-1.15-9.82,1.58l-2,3s-12.6,31.31-21,78c-2.51,13.92-7.58,39.06-10,52C1288.6,1020.86,1311.91,1022.23,1321,1025Z" transform="translate(-645 -118.18)"/><path class="cls-36" d="M1313.88,1425.14,1308,1423l2-6,5-7,.35-2.55C1303,1403,1274.94,1390.61,1249,1392c-27.24,1.46-36.8,3.39-44.32,5.71L1203,1408l3,6v8l-3.77.34a9.12,9.12,0,0,0-8.21,7.86l-11,9.8c-.71,3.69,10.58,7,14.1,8.29,3.9,1.44,9.61,2.23,11.9,2.71,1.9.4,3.81.77,5.71,1.11a232,232,0,0,0,48,3.43c8.88-.27,19.58-.54,25.34-.54,12.66,0,24.14-3.27,27.29-5.87a7.75,7.75,0,0,0,2.79-5.75l.35-11A7,7,0,0,0,1313.88,1425.14Z" transform="translate(-645 -118.18)"/><path class="cls-37" d="M1267,1109l-18.1,25.72a7.57,7.57,0,0,0-1.21,2.81c-2.74,13.62-39.16,187-48.69,245.47,8.09-2.27,27.67-4.59,54-6,9.69-.52,20.08,8,28.69,10.38,14.35,3.92,26.53,10.08,34.31,12.62l37-263-7-24,.62-5.25,7.93-57c.28-1.75-.29-4.53-1.55-5.79,0,0-33.14-18-51-17-19.37,1-15.56,3.73-20.68,5.93-.07.38-.11.58-.11.58a6.61,6.61,0,0,0-3.74,5l-9.61,63.8Z" transform="translate(-645 -118.18)"/><path class="cls-38" d="M1419,864l124-10,24.7,43.9a15.09,15.09,0,0,1,1.86,8.78L1535,1270l207-8,12.62,28.85a15.07,15.07,0,0,1,1.25,6.59l-5.32,138.37a15,15,0,0,1-14.75,14.42l-350.24,5.7a15,15,0,0,1-8.39-2.41L1347,1434Z" transform="translate(-645 -118.18)"/><path class="cls-39" d="M1816,840l142-1,4,420,249,6,10,159-16.47,20.39a15,15,0,0,1-11.74,5.57l-372.65-1.9a15,15,0,0,1-14.3-10.74L1801,1421Z" transform="translate(-645 -118.18)"/><path class="cls-40" d="M2387,1067l194,15,20,123-39,30-156-8,6,54,219,14,25,148-37.5,19.21a15.08,15.08,0,0,1-7.43,1.64l-341.76-13.33a15,15,0,0,1-14.37-13.8L2212.32,903a15,15,0,0,1,1.43-7.69L2236,849l327,31,20,120-35,34-166-9Z" transform="translate(-645 -118.18)"/><path class="cls-41" d="M2807,1334l23,119-37.73,16.57a15.12,15.12,0,0,1-6.83,1.24l-96.45-5.17a15,15,0,0,1-14-12.48l-88.71-525.53a15,15,0,0,1,4.18-13.1L2619,886s88.59,8.36,149,16c58,6,138,33,175,178,38.56,151.11-29,173-29,173l119,208-36.07,14.8a15.14,15.14,0,0,1-6.09,1.12L2881,1474Zm-18-182c39,6,37-27,32-48-6.63-27.86-30-52-50-56-26-2-29-1-29-1l24,91S2761,1151,2789,1152Z" transform="translate(-645 -118.18)"/></g><g id="KILLER"><path class="cls-42" d="M1099.65,899.28,1213,887l-202,265,104,295-140,7-53-208-8,6-47,207-99,4L904.32,925.55a15,15,0,0,1,13.54-11.27L997,909l-51,195,143.09-198.58A15,15,0,0,1,1099.65,899.28Z" transform="translate(-645 -118.18)"/><path class="cls-43" d="M1296.58,1023a76.24,76.24,0,0,1,37,7.51c1.76-18.84,7.1-80.36,3.47-98.47-2.46-12.31-14.54-41-16.65-44.43-.18-.3-3.1,1.19-3.35,1.43-4.42,4.36-35.6,35.31-44,82-2.51,13.92-8.25,44.63-10.67,57.57C1267.93,1026.43,1278.19,1023.94,1296.58,1023Z" transform="translate(-645 -118.18)"/><path class="cls-44" d="M1293.88,1425.14,1288,1423l2-10,6-10,.35-2.55c-12.4-4.07-36.65-10.51-62.6-9.12-27.24,1.46-41.55,4.06-49.07,6.38L1183,1408l3,6v8l-3.77.34a9.12,9.12,0,0,0-8.21,7.86l-1.8,9.44a7.68,7.68,0,0,0,4.88,8.65c3.9,1.44,9.61,2.23,11.9,2.71,1.9.4,3.81.77,5.71,1.11a232,232,0,0,0,48,3.43c8.88-.27,19.58-.54,25.34-.54,12.66,0,24.14-3.27,27.29-5.87a7.75,7.75,0,0,0,2.79-5.75l.35-11A7,7,0,0,0,1293.88,1425.14Z" transform="translate(-645 -118.18)"/><path class="cls-45" d="M1247,1109l-18.1,25.72a7.57,7.57,0,0,0-1.21,2.81c-2.74,13.62-32.2,193.91-41.73,252.33,8.09-2.27,22.69-4.77,49-6.18,25.84-1.39,50,5,62.46,9.07L1333,1137l-7-24,.62-5.25,7.93-67A5.53,5.53,0,0,0,1333,1036s0-.13,0-.37a76.39,76.39,0,0,0-37.19-7.63c-19.37,1-29.41,3.73-34.53,5.93-.07.38-.11.58-.11.58a6.61,6.61,0,0,0-3.74,5l-9.61,63.8Z" transform="translate(-645 -118.18)"/><path class="cls-46" d="M1419,864l124-10-42,417,241-9-8,160-387,12Z" transform="translate(-645 -118.18)"/><path class="cls-47" d="M1816,840l142-1,4,420,249,6,10,159-420-3Z" transform="translate(-645 -118.18)"/><path class="cls-48" d="M2387,1067l194,15,20,123-199-14,10,90,219,14,25,148-370-19-50-575,327,31,20,120-206-19Z" transform="translate(-645 -118.18)"/><path class="cls-49" d="M2820,1262l-28-2,38,193-111-6s-77.45-402-100-561c60.59,6.07,88.59,8.36,149,16,58,6,138,33,175,178,38.56,151.11-29,173-29,173l119,208-114-4Zm8-120c33-2,33-36,28-57-6.63-27.86-23-63-64-66-26-2-50-4-50-4l24,123S2800,1141,2828,1142Z" transform="translate(-645 -118.18)"/></g></svg>