<?xml version="1.0" encoding="utf-8"?>
<!-- Generator: Adobe Illustrator 24.3.0, SVG Export Plug-In . SVG Version: 6.00 Build 0)  -->
<svg version="1.1" id="MM" xmlns="http://www.w3.org/2000/svg" xmlns:xlink="http://www.w3.org/1999/xlink" x="0px" y="0px"
	 viewBox="0 0 1920 1920" style="enable-background:new 0 0 1920 1920;" xml:space="preserve">
<style type="text/css">
	.st0{fill:#121212;}
</style>
<g>
	<path class="st0" d="M1811,836l-35-26l56-53l-40-34l56-44l-40-30l61-294l-93-280l-586,220l-247-0.06L696,295L110,75L17,355l61,294
		l-40,30l56,44l-40,34l56,53l-35,26l82,98L31,1322l117,408l413-113c0,0,70.32,57.64,95,76c35,26.04,144.71,100,144.71,100H943
		h142.29c0,0,109.7-73.96,144.71-100c24.68-18.36,95-76,95-76l413,113l117-408l-126-388L1811,836z M542,825.5v-7l-330,96L141,840
		l39-27l-58-55l42-36l-55-42l27-20.5l-63-303L146,136l658,456.5v11L542,825.5z M599,1163l134-62l53,117L599,1163z M1081.59,1640.88
		H943H804.41L786,1660l18-170l34-22v5l105,0.51l105-0.51v-5l34,22l18,170L1081.59,1640.88z M1100,1218l53-117l134,62L1100,1218z
		 M1344,818.5v7l-262-222v-11L1740,136l73,220.5l-63,303l27,20.5l-55,42l42,36l-58,55l39,27l-71,74.5L1344,818.5z"/>
</g>
</svg>
